<svg xmlns="http://www.w3.org/2000/svg" width="16" height="16" viewBox="0 0 16 16"><defs><style>.a,.b{fill:#31dcc2;}.a{stroke:#707070;opacity:0;}.c{stroke:none;}.d{fill:none;}</style></defs><g transform="translate(-1170 -330)"><g transform="translate(0 3)"><g class="a" transform="translate(1170 327)"><rect class="c" width="16" height="16"/><rect class="d" x="0.5" y="0.5" width="15" height="15"/></g><path class="b" d="M98.238,95.848a.521.521,0,0,1-.893-.536,5.9,5.9,0,1,0-2.033,2.033.521.521,0,0,1,.536.893,6.943,6.943,0,1,1,2.39-2.39Zm-8.932-1.333,2.452-2.452v-2.91a.521.521,0,0,1,1.042,0v3.125a.521.521,0,0,1-.153.368l-2.6,2.6a.521.521,0,1,1-.737-.737Z" transform="translate(1085.722 242.721)"/></g></g></svg>