<?xml version="1.0" standalone="no"?><!DOCTYPE svg PUBLIC "-//W3C//DTD SVG 1.1//EN" "http://www.w3.org/Graphics/SVG/1.1/DTD/svg11.dtd"><svg t="1647936456203" class="icon" viewBox="0 0 1024 1024" version="1.1" xmlns="http://www.w3.org/2000/svg" p-id="12432" xmlns:xlink="http://www.w3.org/1999/xlink" width="200" height="200"><defs><style type="text/css">@font-face { font-family: feedback-iconfont; src: url("//at.alicdn.com/t/font_1031158_u69w8yhxdu.woff2?t=1630033759944") format("woff2"), url("//at.alicdn.com/t/font_1031158_u69w8yhxdu.woff?t=1630033759944") format("woff"), url("//at.alicdn.com/t/font_1031158_u69w8yhxdu.ttf?t=1630033759944") format("truetype"); }
</style></defs><path d="M317.738667 893.653333A104.448 104.448 0 0 1 213.333333 789.333333v-278.528a104.448 104.448 0 0 1 104.405334-104.405333V336.810667a208.810667 208.810667 0 1 1 417.621333 0v69.589333a104.448 104.448 0 0 1 104.405333 104.405333V789.333333a104.448 104.448 0 0 1-104.405333 104.405334z m-34.773334-382.848V789.333333a34.816 34.816 0 0 0 34.773334 34.773334h417.621333a34.816 34.816 0 0 0 34.773333-34.773334v-278.528a34.816 34.816 0 0 0-34.773333-34.773333H317.738667a34.816 34.816 0 0 0-34.773334 34.773333zM665.6 406.4V336.810667a139.178667 139.178667 0 1 0-278.4 0v69.589333z m-173.824 313.216V580.266667a34.773333 34.773333 0 0 1 69.589333 0v139.221333a34.773333 34.773333 0 1 1-69.589333 0z" p-id="12433"></path></svg>